<svg width="30" height="30" viewBox="0 0 30 30" fill="none" xmlns="http://www.w3.org/2000/svg">
<g clip-path="url(#clip0_3_39)">
<path d="M3.75 9.375V28.125C3.75 29.1563 4.59375 30 5.625 30H22.5C23.5313 30 24.375 29.1563 24.375 28.125V9.375H3.75ZM9.375 26.25H7.5V13.125H9.375V26.25ZM13.125 26.25H11.25V13.125H13.125V26.25ZM16.875 26.25H15V13.125H16.875V26.25ZM20.625 26.25H18.75V13.125H20.625V26.25ZM24.8438 3.75H18.75V1.40625C18.7485 1.03375 18.5999 0.67692 18.3365 0.413517C18.0731 0.150115 17.7163 0.00148115 17.3438 0L10.7812 0C10.4087 0.00148115 10.0519 0.150115 9.78852 0.413517C9.52511 0.67692 9.37648 1.03375 9.375 1.40625V3.75H3.28125C2.90859 3.75099 2.55148 3.89947 2.28797 4.16297C2.02447 4.42648 1.87599 4.78359 1.875 5.15625V7.5H26.25V5.15625C26.249 4.78359 26.1005 4.42648 25.837 4.16297C25.5735 3.89947 25.2164 3.75099 24.8438 3.75ZM16.875 3.75H11.25V1.89938H16.875V3.75Z" fill="white"/>
</g>
<defs>
<clipPath id="clip0_3_39">
<rect width="30" height="30" fill="white"/>
</clipPath>
</defs>
</svg>
